<?xml version="1.0" standalone="no"?>
<!DOCTYPE svg PUBLIC "-//W3C//DTD SVG 1.0//EN" "http://www.w3.org/TR/2001/REC-SVG-20010904/DTD/svg10.dtd">
<svg xmlns="http://www.w3.org/2000/svg" xmlns:xlink="http://www.w3.org/1999/xlink" id="body_1" width="667" height="667">

<defs>
    <clipPath  id="1">

    <path id=""  clip-rule="evenodd" transform="matrix(1 0 0 1 0 0)"  d="M500 500L0 500L0 500L0 0L0 0L500 0L500 0L500 500z" />    </clipPath>
</defs>

<g transform="matrix(1.3333 0 0 1.3333 0 0)">
	<g clip-path="url(#1)" >
    <path id=""  transform="matrix(1 0 0 -1 0 500)"  d="M19.708984 18.032227L19.708984 18.032227L19.708984 18.032227L19.708984 18.032227L19.708984 18.032227L208.08789 18.032227L208.08789 18.032227L208.08789 18.032227C 286.97656 55.58106 339.74997 72.49707 424.00394 165.22559L424.00394 165.22559L424.1504 165.38867L424.1504 165.38867L424.3047 165.54492L424.3047 165.54492L424.3047 165.54492C 427.293 168.53322 428.04297 171.29688 427.6787 175.44727L427.6787 175.44727L427.6787 175.44727C 427.31445 179.59474 425.24316 184.87111 421.9053 189.83984L421.9053 189.83984L421.9053 189.83984C 415.79593 198.93459 404.8125 205.91113 400.16116 207.0957L400.16116 207.0957L345.4102 152.34961L345.4102 152.34961L332.50394 165.2539L332.50394 165.2539L393.9727 226.71875L393.9727 226.71875L393.9727 226.71875C 395.25784 228.0039 395.7344 229.32617 395.06155 233.07422L395.06155 233.07422L395.06155 233.07422C 394.38773 236.82225 392.03418 242.12402 388.44046 247.3418L388.44046 247.3418L388.44046 247.3418C 381.6494 257.20312 370.21487 266.6289 362.60645 269.6416L362.60645 269.6416L307.8994 214.93457L307.8994 214.93457L294.99316 227.84082L294.99316 227.84082L357.1709 290.01562L357.1709 290.01562L357.1709 290.01562C 354.02148 309.0537 340.9209 324.59766 325.4131 330.68945L325.4131 330.68945L325.70215 331.42773L325.70215 331.42773L255.86232 261.58984L255.86232 261.58984L242.95705 274.49414L242.95705 274.49414L405.78125 437.31445L405.78125 437.31445L405.78125 437.31445C 413.1836 444.7168 415.49802 451.6699 415.4033 457.8535L415.4033 457.8535L415.4033 457.8535C 415.30957 464.03513 412.5908 469.78317 408.167 474.08395L408.167 474.08395L408.167 474.08395C 399.3193 482.6826 385.22754 485.89645 371.21384 471.8818L371.21384 471.8818L153.20314 253.87697L153.20314 253.87697L140.29884 266.78125L140.29884 266.78125L172.60353 299.08594L172.60353 299.08594L172.60353 299.08594C 168.96681 344.97266 155.09181 381.87207 139.79103 398.83984L139.79103 398.83984L139.79103 398.83984C 131.93947 407.5449 124.7383 410.70215 118.007835 409.9961L118.007835 409.9961L118.007835 409.9961C 112.00979 409.3672 104.65334 404.9453 96.72854 394.50293L96.72854 394.50293L96.72854 394.50293C 118.42776 343.3994 115.507835 288.02344 99.207054 235.63086L99.207054 235.63086L99.207054 235.63086C 82.695335 182.5664 52.590843 132.25977 19.709011 90.64062L19.709011 90.64062L19.709011 90.64062L19.709011 90.64062L19.709011 18.033197z" stroke="#FFFFFF" stroke-width="1.3020834" fill="#000000" fill-rule="nonzero" />
	</g>
</g>
</svg>